<?xml version="1.0" encoding="UTF-8"?><svg id="katman_2" xmlns="http://www.w3.org/2000/svg" xmlns:xlink="http://www.w3.org/1999/xlink" viewBox="0 0 157.24 50.53"><defs><style>.cls-1{fill:url(#linear-gradient);fill-rule:evenodd;}.cls-2{mask:url(#mask);}.cls-3{fill:#252b5b;}.cls-4{fill:#273475;}.cls-5{fill:url(#linear-gradient-3);}.cls-6{fill:url(#linear-gradient-2);}.cls-7{mask:url(#mask-3);}.cls-8{mask:url(#mask-6);}</style><linearGradient id="linear-gradient" x1="0" y1="30.52" x2="157.24" y2="30.52" gradientUnits="userSpaceOnUse"><stop offset="0" stop-color="#de414d"/><stop offset="1" stop-color="#8f1d80"/></linearGradient><linearGradient id="linear-gradient-2" x1="59.42" y1="25.15" x2="36.61" y2="65.14" gradientTransform="translate(0 52.64) scale(1 -1)" gradientUnits="userSpaceOnUse"><stop offset="0" stop-color="#3356a3"/><stop offset=".76" stop-color="#5ec5eb"/><stop offset="1" stop-color="#60c0c0"/></linearGradient><linearGradient id="linear-gradient-3" x1="46.86" y1="-9.64" x2="80.62" y2="59.71" gradientTransform="translate(0 52.64) scale(1 -1)" gradientUnits="userSpaceOnUse"><stop offset="0" stop-color="#3356a3"/><stop offset="1" stop-color="#cb92c1"/></linearGradient><mask id="mask" x="52.05" y="12.37" width="8.63" height="18.85" maskUnits="userSpaceOnUse"/><mask id="mask-3" x="44.02" y="1.33" width="41.57" height="49.3" maskUnits="userSpaceOnUse"/><mask id="mask-6" x="36.02" y="1.33" width="20.99" height="29.89" maskUnits="userSpaceOnUse"/></defs><g id="Layer_1"><g><path class="cls-1" d="M150.89,25.84c-1.22,.57-2.5,1.01-3.81,1.3l-2.25,.5c-1.18,.33-2.02,.77-2.54,1.3-.43,.65-.67,1.41-.69,2.19-.04,.88,.28,1.74,.88,2.39,.59,.53,1.44,.8,2.54,.8,1.82,0,3.26-.53,4.31-1.59,1.04-1.06,1.56-2.52,1.56-4.38v-2.49h0Zm1.56,12.25c-1.35,.72-2.83,1.18-4.35,1.34-1.35,.15-2.7,.24-4.06,.25-2.21,.04-4.37-.64-6.16-1.94-1.76-1.3-2.64-3.44-2.64-6.43,0-2.79,.8-4.77,2.39-5.97,1.6-1.2,3.64-1.99,6.11-2.39,.4,0,.79-.06,1.17-.15,.52-.11,1.04-.19,1.56-.25,2.87-.4,4.3-1.26,4.3-2.59,0-1-.51-1.64-1.52-1.94-.9-.28-1.84-.43-2.78-.45-.83-.01-1.66,.12-2.44,.4-.71,.26-1.27,.8-1.56,1.5h-6.55c.22-1.98,1.2-3.8,2.74-5.08,1.76-1.53,4.27-2.29,7.52-2.29,3.65,0,6.39,.63,8.21,1.89,1.89,1.33,2.84,3.18,2.84,5.58v9.06c0,2.66-.47,4.73-1.42,6.23-.81,1.37-1.97,2.49-3.37,3.24Zm-31.96,1.09v-12.84c0-2.59,.37-4.76,1.12-6.52,.66-1.64,1.72-3.1,3.08-4.23,1.28-1.02,2.76-1.77,4.35-2.19,1.67-.46,3.4-.7,5.13-.7h.98v7.07h-2.25c-1.9,0-3.3,.46-4.21,1.39-.91,.93-1.37,2.39-1.37,4.38v13.64h-6.84Zm-7.34-13.34c-1.22,.57-2.49,1.01-3.81,1.3l-2.25,.5c-1.17,.33-2.02,.77-2.54,1.3-.43,.65-.67,1.41-.68,2.19-.04,.88,.28,1.75,.88,2.39,.58,.53,1.43,.8,2.54,.8,1.83,0,3.26-.53,4.31-1.59,1.04-1.06,1.56-2.52,1.56-4.38v-2.49h0Zm1.57,12.25c-1.35,.72-2.83,1.18-4.35,1.34-1.35,.15-2.7,.24-4.06,.25-2.21,.04-4.37-.64-6.16-1.94-1.76-1.3-2.64-3.44-2.64-6.43,0-2.79,.79-4.77,2.39-5.97s3.63-1.99,6.11-2.39c.39,0,.79-.06,1.17-.15,.52-.11,1.04-.19,1.56-.25,2.87-.4,4.31-1.26,4.31-2.59,0-1-.51-1.64-1.52-1.94-.9-.28-1.84-.44-2.79-.45-.83-.01-1.66,.12-2.44,.4-.71,.26-1.27,.8-1.56,1.5h-6.55c.22-1.98,1.2-3.8,2.74-5.08,1.77-1.53,4.27-2.29,7.52-2.29,3.65,0,6.39,.63,8.21,1.89,1.89,1.33,2.83,3.18,2.83,5.58v9.06c0,2.66-.47,4.73-1.42,6.23-.81,1.36-1.97,2.48-3.37,3.24h0Zm-24.54-12.05c0-2.59-.49-4.58-1.46-5.97-.97-1.39-2.38-2.09-4.21-2.09-1.64-.06-3.19,.73-4.1,2.09-.91,1.27-1.37,3.26-1.37,5.98,0,2.52,.49,4.42,1.46,5.67,.99,1.39,2.38,2.09,4.21,2.09,1.61,.04,3.13-.75,4.01-2.09,.97-1.4,1.46-3.29,1.46-5.68h0Zm-11.14,19.53c.01,.9-.34,1.76-.98,2.39-.61,.65-1.46,1.01-2.35,1h-3.32V24.15c0-4.65,1.34-7.82,4.01-9.51,2.6-1.67,5.62-2.55,8.7-2.54,1.69,.01,3.36,.33,4.94,.95,1.54,.54,2.9,1.49,3.95,2.74,1.96,2.59,2.93,5.91,2.94,9.96,0,4.18-.98,7.57-2.94,10.16-1.96,2.53-4.46,3.79-7.52,3.79-1.48,.03-2.96-.27-4.3-.9-1.33-.69-2.42-1.76-3.13-3.08v9.86h0ZM40.76,25.84c-1.22,.57-2.5,1.01-3.81,1.3l-2.24,.49c-1.18,.33-2.02,.77-2.55,1.29-.43,.65-.67,1.41-.68,2.19-.04,.88,.28,1.75,.88,2.39,.59,.53,1.43,.8,2.54,.8,1.83,0,3.26-.53,4.3-1.6,1.04-1.06,1.56-2.51,1.56-4.38v-2.49h0Zm1.57,12.25c-1.35,.72-2.83,1.17-4.35,1.34-1.35,.15-2.7,.24-4.06,.25-2.21,.04-4.37-.64-6.16-1.94-1.76-1.3-2.64-3.44-2.64-6.43,0-2.79,.8-4.78,2.4-5.97,1.6-1.2,3.63-1.99,6.11-2.39,.39-.01,.79-.06,1.17-.15,.46-.1,.98-.18,1.56-.25,2.87-.4,4.3-1.26,4.3-2.59,0-1-.5-1.64-1.51-1.94-.9-.28-1.85-.44-2.79-.45-.83-.01-1.66,.12-2.44,.4-.71,.26-1.27,.8-1.56,1.5h-6.55c.22-1.98,1.2-3.8,2.74-5.08,1.75-1.53,4.26-2.29,7.53-2.29,3.64,0,6.39,.63,8.21,1.89,1.89,1.33,2.84,3.19,2.84,5.58v9.06c0,2.66-.47,4.73-1.42,6.23-.81,1.37-1.97,2.49-3.37,3.24h0ZM6.64,45.56c.01,.89-.34,1.75-.97,2.39-.61,.64-1.46,1-2.35,1H0V24.14c0-4.65,1.34-7.82,4.01-9.51,2.59-1.67,5.61-2.55,8.7-2.54,1.69,.01,3.36,.33,4.94,.95,1.54,.54,2.91,1.49,3.96,2.74,1.96,2.59,2.93,5.91,2.94,9.96,0,4.18-.98,7.57-2.94,10.16-1.96,2.53-4.47,3.79-7.53,3.79-1.48,.03-2.96-.28-4.3-.9-1.33-.69-2.42-1.76-3.13-3.08v9.86h0Zm11.15-19.53c0-2.59-.49-4.58-1.47-5.97-.97-1.39-2.37-2.09-4.2-2.09-1.64-.06-3.19,.73-4.11,2.09-.91,1.27-1.37,3.26-1.37,5.98,0,2.52,.49,4.42,1.47,5.67,.98,1.4,2.38,2.1,4.21,2.09,1.61,.04,3.12-.75,4-2.09,.98-1.39,1.47-3.28,1.47-5.68h0Z"/><g><path class="cls-6" d="M36.12,1.43c5.67-3.27,17.41-.81,21.26,7.86l10.27,23.06-4.68,8.11c-.66,1.13-1.38,2.19-2.16,3.16-.78-.97-1.51-2.02-2.16-3.16L36.12,1.43h0Z"/><path class="cls-5" d="M85.5,1.43c-5.67-3.27-16.9-.99-21.14,7.49l-20.23,40.47c5.67,3.27,14.1-.73,18.84-8.94L85.5,1.43h0Z"/><g class="cls-2"><polygon class="cls-3" points="58.8 12.47 52.15 29.19 53.26 31.12 60.58 16.47 58.8 12.47"/></g><g class="cls-7"><path class="cls-4" d="M71.98,24.85L85.5,1.43s0,0,0,0c-5.78,.21-10.77,3.49-13.39,8.26l-.32,.6-7.54,14.4-6.99,13.34-1.28,2.45c-.17,.37-.36,.72-.56,1.07h0c-2.34,4.09-6.45,7.05-11.28,7.83,1.99,1.15,4.33,1.4,6.72,.89,4.42-.95,9.05-4.51,12.12-9.83l4.68-8.11,4.33-7.49h0Z"/></g><g class="cls-8"><path class="cls-4" d="M49.64,24.85L36.12,1.43s0,0,0,0c5.78,.21,10.77,3.49,13.39,8.26l.32,.6,7.08,13.52-3.65,7.31-3.62-6.27h0Z"/></g></g></g></g></svg>