<svg height="631.94692" viewBox="0 0 675.67004 631.94692" width="675.67004" xmlns="http://www.w3.org/2000/svg"><path d="m886.75657 617.4844 30.31095 4.737a98.98541 98.98541 0 0 0 20.60431-42.93875c-22.16391 18.14266-55.86923 8.5016-82.74464 18.40656a59.5399 59.5399 0 0 0 -35.62019 37.34356l-14.81331 15.93733a99.77016 99.77016 0 0 0 83.41131-4.5921 96.3717 96.3717 0 0 0 19.64-14.09929c-10.60577-6.67829-20.78843-14.79431-20.78843-14.79431z" fill="#f2f2f2" transform="translate(-262.16498 -134.02654)"/><path d="m875.99631 569.00709 29.24218-9.2783a98.98538 98.98538 0 0 0 -.70813-47.62114c-11.74636 26.12313-46.21379 32.5259-65.851 53.37718a59.53993 59.53993 0 0 0 -15.227 49.31l-6.15081 20.871a99.77014 99.77014 0 0 0 72.60872-41.31 96.37253 96.37253 0 0 0 11.29063-21.37854c-12.47109-1.24729-25.20459-3.9702-25.20459-3.9702z" fill="#f2f2f2" transform="translate(-262.16498 -134.02654)"/><path d="m937.835 660.62474a1.18647 1.18647 0 0 1 -1.19006 1.19h-673.28994a1.19 1.19 0 0 1 0-2.38h673.29a1.18651 1.18651 0 0 1 1.19 1.19z" fill="#ccc" transform="translate(-262.16498 -134.02654)"/><circle cx="278.99773" cy="260.8659" fill="#e6e6e6" r="215"/><path d="m726.16271 394.89244a184.74377 184.74377 0 0 1 -74.67 148.51c-1.55 1.16-3.13 2.29-4.72 3.39a185.03127 185.03127 0 0 1 -211.22 0c-1.59-1.1-3.17-2.23-4.72-3.39a185.01966 185.01966 0 0 1 0-297.02c1.55-1.16 3.13-2.29 4.72-3.39a185.0315 185.0315 0 0 1 211.22 0c1.59 1.1 3.17 2.23 4.72 3.39a184.74369 184.74369 0 0 1 74.67 148.51z" fill="#fff" transform="translate(-262.16498 -134.02654)"/><circle cx="278.99773" cy="260.8659" fill="#e65f6c" r="169"/><g transform="translate(-262.16498 -134.02654)"><path d="m541.60362 226.36486c-2.562 0-5.10815.067-7.64221.1798a168.99467 168.99467 0 0 1 -7.15649 337.168c4.87781.42328 9.81116.65223 14.7987.65223a169 169 0 0 0 0-338z" opacity=".2"/><g fill="#fff"><path d="m541.66271 213.89244a5.50968 5.50968 0 0 0 -5.5 5.5v24a5.5 5.5 0 0 0 11 0v-24a5.50968 5.50968 0 0 0 -5.5-5.5z"/><path d="m651.49272 246.38243c-1.55-1.16-3.13-2.29-4.72-3.39a5.49662 5.49662 0 0 0 -4.9 2.39l-13.51 19.83a5.49872 5.49872 0 0 0 9.09 6.19l13.51-19.83a5.4644 5.4644 0 0 0 .53-5.19z"/><path d="m712.87273 336.80242a5.4929 5.4929 0 0 0 -7.16-3.02l-22.24 9.03a5.49945 5.49945 0 0 0 4.14 10.19l22.24-9.03a5.51241 5.51241 0 0 0 3.02-7.17z"/><path d="m453.96269 265.21245-13.51-19.83a5.49661 5.49661 0 0 0 -4.9-2.39c-1.59 1.1-3.17 2.23-4.72 3.39a5.46442 5.46442 0 0 0 .53 5.19l13.51 19.83a5.49872 5.49872 0 0 0 9.09-6.19z"/><path d="m398.85271 342.81243-22.24-9.03a5.49942 5.49942 0 0 0 -4.14 10.18994l22.24 9.03a5.49945 5.49945 0 0 0 4.14-10.19z"/><path d="m541.66271 540.89244a5.50968 5.50968 0 0 0 -5.5 5.5v24a5.5 5.5 0 0 0 11 0v-24a5.50968 5.50968 0 0 0 -5.5-5.5z"/><path d="m650.96269 538.21245-13.51-19.83a5.49872 5.49872 0 1 0 -9.09 6.19l13.51 19.83a5.49657 5.49657 0 0 0 4.9 2.39c1.59-1.1 3.17-2.23 4.72-3.39a5.46436 5.46436 0 0 0 -.53-5.19z"/><path d="m709.85271 445.81243-22.24-9.03a5.49942 5.49942 0 0 0 -4.14 10.18994l22.24 9.03a5.49945 5.49945 0 0 0 4.14-10.19z"/><path d="m452.51268 516.93242a5.5 5.5 0 0 0 -7.63995 1.45l-13.51 19.83a5.46439 5.46439 0 0 0 -.53 5.19c1.55 1.16 3.13 2.29 4.72 3.39a5.49656 5.49656 0 0 0 4.9-2.39l13.51-19.83a5.49838 5.49838 0 0 0 -1.45005-7.64z"/><path d="m401.87273 439.80242a5.4929 5.4929 0 0 0 -7.16-3.02l-22.24 9.03a5.49945 5.49945 0 0 0 4.14 10.19l22.24-9.03a5.51241 5.51241 0 0 0 3.02-7.17z"/></g><path d="m548.79894 392.16338a11.5131 11.5131 0 0 1 -9.40873 13.26558l-97.59815 16.60128a11.5 11.5 0 0 1 -3.85686-22.67432l97.59815-16.60127a11.5131 11.5131 0 0 1 13.26559 9.40873z" fill="#3f3d56"/><path d="m651.51837 500.29429a7.5082 7.5082 0 0 1 -10.60652.04177l-105.063-104.23895a7.5 7.5 0 0 1 10.56475-10.64828l105.063 104.23895a7.50819 7.50819 0 0 1 .04177 10.60651z" fill="#3f3d56"/></g><circle cx="278.99773" cy="260.8659" fill="#ccc" r="13"/><g fill="#e6e6e6"><path d="m451.61885 169.47127c-19.95483 31.3725-50.40146 52.19272-87.94977 65.87042a7.05892 7.05892 0 0 1 -9.88158-1.41838c-20.3959-27.23248-15.79051-66.15312 11.1278-86.96189a62.06846 62.06846 0 0 1 87.55785 11.87509l.56413.75322a7.05892 7.05892 0 0 1 -1.41843 9.88154z" transform="translate(-262.16498 -134.02654)"/><path d="m629.85228 158.83648a62.06846 62.06846 0 0 1 87.55785-11.87509c26.91832 20.80877 31.52371 59.72941 11.1278 86.96189a7.05889 7.05889 0 0 1 -9.88155 1.41838c-34.8573-13.34536-63.4422-36.43945-87.94983-65.87042a7.059 7.059 0 0 1 -1.41838-9.88157z" transform="translate(-262.16498 -134.02654)"/><path d="m621.10592 581.16067a5.50968 5.50968 0 0 0 -2.11376 7.48546l31.74188 56.7226a5.5 5.5 0 0 0 9.59921-5.3717l-31.74188-56.7226a5.50968 5.50968 0 0 0 -7.48545-2.11376z" transform="translate(-262.16498 -134.02654)"/><path d="m453.734 583.27443-31.74184 56.72257a5.5 5.5 0 0 0 9.59921 5.3717l31.74188-56.7226a5.5 5.5 0 1 0 -9.59921-5.3717z" transform="translate(-262.16498 -134.02654)"/><circle cx="394.99773" cy="508.8659" r="17"/><circle cx="406.99773" cy="73.8659" r="17"/><circle cx="277.99773" cy="33.8659" r="17"/><circle cx="154.99773" cy="71.8659" r="17"/><circle cx="165.99773" cy="508.8659" r="17"/></g><path d="m643.82785 490.73326a8.51615 8.51615 0 0 0 12.95041 1.67682l26.67551 14.29343-1.43061-15.66135-25.11216-11.17223a8.56232 8.56232 0 0 0 -13.08312 10.86333z" fill="#ffb7b7" transform="translate(-262.16498 -134.02654)"/><path d="m663.26422 496.199 10.45348-14.42967 50.35989 23.80654 62.667-11.75832a21.47122 21.47122 0 0 1 25.43021 21.06258 21.49411 21.49411 0 0 1 -21.43119 21.51043l-71.81625.13324z" fill="#3f3d56" transform="translate(-262.16498 -134.02654)"/><path d="m384.999 611.399-10.577-5.058 14.529-44.208 15.609 7.466z" fill="#ffb7b7"/><path d="m718.07 738.29872c-.7691.48175-1.5382.95554-2.31507 1.42951-1.546.94777-3.10749 1.88-4.669 2.79663-.78465.45843-1.57707.91685-2.36172 1.3675v.02314l-.04661.00777-.01551.00778-1.19641.29531-1.71686-4.537-.79243-2.08974-1.1187-2.95994-2.051-5.41478-10.79851-28.51121 16.78822-4.1408.62926 2.5715h.00778l.31072 1.274 5.86543 23.788 1.19637 4.86323.03883.14756.72249 2.9055.62153 2.51706.69139 2.81238z" fill="#ffb7b7" transform="translate(-262.16498 -134.02654)"/><path d="m818.21837 638.17372c-1.06431 1.70913-2.152 3.41049-3.24732 5.09629q-3.05317 4.70782-6.26938 9.27587c0 .00777-.00777.00777-.01555.01555a21.93387 21.93387 0 0 1 -4.11742 3.0065c-.06216.04661-.13205.07767-.19422.1165a15.17964 15.17964 0 0 1 -3.46487 1.39063c-.435.10873-.87787.2175-1.31292.32628-1.56925.37288-3.123.69142-4.669.97109-2.75012.48943-5.46917.839-8.17268 1.05653-.21754.02333-.435.03884-.65259.05439-11.117.81571-21.93889-.49721-33.23461-2.64912-5.578-1.05658-11.27244-2.32289-17.16893-3.6358-1.92663-.43505-3.861-.86232-5.81877-1.28959-.14761-.03106-.303-.06994-.45838-.101-2.79673-.61371-5.64006-1.2197-8.55334-1.81791-3.66686-.75354-7.45023-1.4838-11.38121-2.17523l.27967 5.53911a41.68909 41.68909 0 0 0 2.62583 12.4533c1.67807 4.90985 3.0065 8.79421.202 16.88144l-1.35176 3.91543a13.37221 13.37221 0 0 1 -1.37508 11.83181l-.27188.41172 11.27243 28.519.73027 1.849h-5.77221l-7.10059.00778h-12.03377l-17.36314-34.835-.83126-1.66252v-.08544l1.79457-66.94316c.02333-.59043.06994-1.18864.14761-1.77907a20.35271 20.35271 0 0 1 7.74545-13.704 19.60027 19.60027 0 0 1 14.59743-3.99314l5.9431.7691 12.14253 1.5693 8.55334 1.11092.17094.02328 25.22505 3.26288 1.81013-7.3803.33405-.12428 10.61989-3.89214 36.73054-13.46323.09322-.03105 2.41607-.88565.28744.46611c.08549.13987.17093.27971.2486.41954a71.99912 71.99912 0 0 1 5.80327 13.471 211.47728 211.47728 0 0 1 6.09844 23.28292q.10489.51275.18644.93226l.02333.08544c.02328.13206.03883.2175.04661.24083.84681 3.5269.25638 7.83081-1.29737 12.09583z" fill="#2f2e41" transform="translate(-262.16498 -134.02654)"/><path d="m819.76865 613.50321c-.11655-.49721-.26415-1.00215-.41949-1.49159a106.28979 106.28979 0 0 0 -4.30386-10.89178c-1.83341-4.03975-4.032-8.36694-6.65-13.05146q-1.89946-3.40275-4.08637-7.0773-1.09539-1.84121-2.27623-3.75231a1.972 1.972 0 0 0 -.101-.17089l-.22527-.37289-36.34216 4.86324-13.53311 1.81013-.80794 6.74325-.19421 1.6703c-.00778 0-.00778 0 0 .00777l-.54383 4.55247v.00778l-.72248 6.013-.06216-.00778-20.08216-2.60251-20.69591-2.68022-11.11706-1.43719a19.58836 19.58836 0 0 0 -14.59743 3.99314 20.3629 20.3629 0 0 0 -7.7454 13.704c-.06994.54382-.11655 1.10315-.13988 1.65475l-10.48779 24.85216a160.34347 160.34347 0 0 0 -11.8551 46.64346l-7.69106 24.58806 1.09537.101 16.29879 1.51492 4.30386.404 9.47786-13.83611c1.07987-1.57707 2.10534-3.20071 3.06088-4.86323a73.86106 73.86106 0 0 0 4.18736-8.42133l20.5017-48.78763q2.37727.408 4.70785.77687 10.77918 1.748 20.69591 2.85112c21.49607 2.40055 40.11 2.587 56.68069.55159q6.98021-.85065 13.49429-2.2374 2.38894-.50113 4.71562-1.07986c.36511-.08545.72249-.17089 1.07987-.26416a19.82527 19.82527 0 0 0 13.86717-12.95824 20.22821 20.22821 0 0 0 .51268-11.31913z" fill="#2f2e41" transform="translate(-262.16498 -134.02654)"/><path d="m650.54238 738.20692-11.44332-5.48473-1.79458-.86231-2.86666 7.03847-20.01227 4.4049a4.74845 4.74845 0 0 0 -.77687 9.035l19.55389 7.97851 6.20721-5.58572-1.52269 7.49684 7.36474 3.0065 8.07168-25.69121z" fill="#2f2e41" transform="translate(-262.16498 -134.02654)"/><path d="m458.703 593.34.731 1.849h-.731z" fill="#2f2e41"/><path d="m716.883 729.6106-11.99056 4.1544-1.88192.65 2.91542 7.01841-11.12085 17.21106a4.74844 4.74844 0 0 0 5.80521 6.9667l19.50836-8.08917.48047-8.3366 4.193 6.39847 7.34864-3.04564-12.34131-23.93495z" fill="#2f2e41" transform="translate(-262.16498 -134.02654)"/><path d="m816.77843 624.75865a4.40445 4.40445 0 0 1 -2.043-.50683l-63.27441-33.0625-.731-2.99317-1.37793-9.47168.019-.08886 6.01758-27.74317c-.11035-.23828-.34082-.6289-.60107-1.07031-2.68653-4.55176-10.86231-18.40527 4.74121-37.48047l27.3955-31.93945 23.5127-1.01172.26758.33789a61.242 61.242 0 0 1 10.41026 56.88862l-2.44824 44.2168 2.626 8.92969a24.6393 24.6393 0 0 1 -.72168 15.94433l.602 14.459a4.41745 4.41745 0 0 1 -4.39453 4.59179z" fill="#3f3d56" transform="translate(-262.16498 -134.02654)"/><path d="m761.89233 661.22445a8.5162 8.5162 0 0 0 2.12627-12.88426l15.21265-26.16219-15.70163.885-12.039 24.70838a8.56232 8.56232 0 0 0 10.40167 13.45308z" fill="#ffb7b7" transform="translate(-262.16498 -134.02654)"/><path d="m768.03088 641.99-14.05733-10.94906 25.54384-49.50134-9.57139-63.03817a21.47121 21.47121 0 0 1 21.9344-24.68218 21.49411 21.49411 0 0 1 20.752 22.16643l-2.36488 71.77743z" fill="#3f3d56" transform="translate(-262.16498 -134.02654)"/><path d="m771.84232 467.13077v-23.26677a31.177 31.177 0 1 1 62.35408-.04005v.04005c5.49493 11.45055 2.05727 16.8945 0 23.2668a4.19307 4.19307 0 0 1 -4.18608 4.18608h-53.97984a4.1931 4.1931 0 0 1 -4.18816-4.18611z" fill="#2f2e41" transform="translate(-262.16498 -134.02654)"/><circle cx="530.63215" cy="312.44125" fill="#ffb7b7" r="23.33714"/><path d="m817.22046 452.58578c-.21152-.03343-.423-.078-.63455-.11143-3.64026-.64562-7.28046-1.2801-10.90958-1.937l-.334-8.2266-4.39718 7.3694c-10.03015 3.32853-19.41462 1.44724-28.24248-2.70506a79.73731 79.73731 0 0 1 -8.46054-4.66434 30.92749 30.92749 0 0 1 15.19553-21.886c.334-.18929.65677-.35617.99079-.52331a.0109.0109 0 0 0 .01107-.01115c.56776-.26716 1.14666-.52318 1.72556-.75691a25.70666 25.70666 0 0 1 26.98453 5.23209c7.12457 6.8019 10.33066 18.03429 8.07085 28.22031z" fill="#2f2e41" transform="translate(-262.16498 -134.02654)"/></svg>