<svg class="h-75px h-md-150px" viewBox="0 0 235 235" xmlns="http://www.w3.org/2000/svg"><g data-name="#324_waiting_flatline" transform="translate(-83.24 -29.843)"><path d="M309.74 228.59H90.26a.5.5 0 0 1-.5-.5.5.5 0 0 1 .5-.5h219.48a.5.5 0 0 1 .5.5.5.5 0 0 1-.5.5Z" fill="#d1d3d4"/><path fill="#fff" d="M277.17 115.74h9.5v133.23h-9.5z"/><path d="M286.67 249.47h-9.5a.5.5 0 0 1-.5-.5V115.74a.5.5 0 0 1 .5-.5h9.5a.51.51 0 0 1 .5.5V249a.5.5 0 0 1-.5.47Zm-9-1h8.5V116.24h-8.5Z" fill="#d1d3d4"/><path fill="#fff" d="M113.34 115.74h9.5v133.23h-9.5z"/><path d="M122.83 249.47h-9.5a.5.5 0 0 1-.5-.5V115.74a.51.51 0 0 1 .5-.5h9.5a.5.5 0 0 1 .5.5V249a.5.5 0 0 1-.5.47Zm-9-1h8.5V116.24h-8.5Z" fill="#d1d3d4"/><path fill="#fff" d="M102.26 145.35h195.48v22.79H102.26z"/><path d="M297.74 168.64H102.26a.5.5 0 0 1-.5-.5v-22.79a.5.5 0 0 1 .5-.5h195.48a.5.5 0 0 1 .5.5v22.79a.5.5 0 0 1-.5.5Zm-195-1h194.5v-21.79H102.76Z" fill="#d1d3d4"/><path fill="#fff" d="M102.26 114.23h195.48v22.79H102.26z"/><path d="M297.74 137.52H102.26a.5.5 0 0 1-.5-.5v-22.79a.5.5 0 0 1 .5-.5h195.48a.5.5 0 0 1 .5.5V137a.5.5 0 0 1-.5.52Zm-195-1h194.5v-21.79H102.76Z" fill="#d1d3d4"/><path fill="#fff" d="M102.26 182.4h195.48v8.8H102.26z"/><path d="M297.74 191.7H102.26a.5.5 0 0 1-.5-.5v-8.8a.5.5 0 0 1 .5-.5h195.48a.5.5 0 0 1 .5.5v8.8a.5.5 0 0 1-.5.5Zm-195-1h194.5v-7.8H102.76Z" fill="#d1d3d4"/><path d="m149.74 127.4-10.31 42.73a9.25 9.25 0 0 1-2.21 4.75 12.38 12.38 0 0 1-4.38 2.72c-2.21.9-4.33 1-6.38 2.34a1.71 1.71 0 0 0-.9 1.18 1.24 1.24 0 0 0 .68 1.09 3.47 3.47 0 0 0 1.31.33c6.12.71 12.16.85 18.06-1.07 3.59-1.16 4.56-3.09 5.46-6.77l12.36-45.41" fill="#fff"/><path d="M134.94 183.55a62 62 0 0 1-7.44-.5 3.84 3.84 0 0 1-1.51-.39 1.73 1.73 0 0 1-.95-1.58 2.2 2.2 0 0 1 1.13-1.56 12.61 12.61 0 0 1 4.08-1.65 19.29 19.29 0 0 0 2.39-.75 12.07 12.07 0 0 0 4.21-2.6 8.78 8.78 0 0 0 2.08-4.52l10.31-42.72a.51.51 0 1 1 1 .24l-10.31 42.73a9.73 9.73 0 0 1-2.34 5 13.12 13.12 0 0 1-4.56 2.84 20.75 20.75 0 0 1-2.52.79 11.62 11.62 0 0 0-3.76 1.5c-.28.19-.66.48-.68.78a.75.75 0 0 0 .42.61 3.12 3.12 0 0 0 1.12.27c5.32.62 11.59 1 17.84-1.05 3.32-1.08 4.23-2.77 5.11-6.4l12.37-45.43a.52.52 0 0 1 1 .27l-12.37 45.41c-.94 3.86-2 5.92-5.79 7.13a35 35 0 0 1-10.83 1.58Z" fill="#231f20"/><path d="M239.13 228.09s.55 18.71 1.81 18.8 26.91 9.63 29.2 6.79c2-2.46.75-8.21-3.87-9.82-6.42-2.25-11.18-8.4-11.18-8.4l-.59-12.2" fill="#fff"/><path d="M268.11 254.72c-3.95 0-12-2.37-23.18-6-1.93-.64-3.76-1.24-4-1.27-.51 0-1.72-.13-2.27-19.31a.51.51 0 0 1 .5-.53.53.53 0 0 1 .53.5c.24 8.2.86 17.16 1.5 18.34.46.09 1.54.45 4.1 1.29 5.67 1.87 22.95 7.57 24.49 5.66a5.11 5.11 0 0 0 .53-4.49 6.61 6.61 0 0 0-4.17-4.53c-6.49-2.27-11.22-8.31-11.41-8.57a.44.44 0 0 1-.11-.29l-.6-12.19a.52.52 0 0 1 .49-.54.47.47 0 0 1 .54.49l.59 12c.71.87 5.14 6.1 10.85 8.1a7.66 7.66 0 0 1 4.82 5.22 6.13 6.13 0 0 1-.73 5.42 3.1 3.1 0 0 1-2.47.7Z" fill="#231f20"/><path d="M177.28 228.09s-10.34 1.37-14.45 3.43c0 0 1.17 9.68-10.57 15.55 0 0-3.81 3.53-2 7.05s18.22-.74 23.33-3.52a40.43 40.43 0 0 0 8.37-6Z" fill="#fff"/><path d="M154.33 256a9.82 9.82 0 0 1-2.87-.35 2.69 2.69 0 0 1-1.71-1.27c-1.92-3.83 2-7.5 2.16-7.66l.12-.08c11.26-5.63 10.3-14.94 10.29-15a.51.51 0 0 1 .28-.53c4.14-2.07 14.18-3.42 14.61-3.47a.5.5 0 0 1 .56.37l4.64 16.49a.49.49 0 0 1-.14.5 40 40 0 0 1-8.48 6.11c-3.73 1.97-13.58 4.89-19.46 4.89Zm-1.77-8.47c-.42.41-3.35 3.46-1.89 6.39a1.73 1.73 0 0 0 1.1.74c4.43 1.4 17.32-2.2 21.53-4.49a40.94 40.94 0 0 0 8-5.72l-4.43-15.76c-2 .28-9.87 1.49-13.53 3.17a14.07 14.07 0 0 1-.94 5.44c-1.07 2.93-3.67 7.09-9.84 10.2Z" fill="#231f20"/><path d="M173.24 155.43s-25.09 10.57-29.52 25c-4.21 13.71 16.74 55 16.74 55l18.1-3S169 191.12 169.81 189s19.48-7.49 30.41-6.65 31.09 4.44 31.09 4.44l6.38 46.43 20.92-3S256 177 248.51 166.08s-25-12.13-25-12.13Z" fill="#231f20"/><path d="M160.46 236a.51.51 0 0 1-.45-.28c-.85-1.69-21-41.65-16.77-55.39 1.87-6.1 7.47-12.22 16.63-18.19a94.23 94.23 0 0 1 13.18-7.14.39.39 0 0 1 .18 0l50.24-1.47c.78 0 17.95 1.33 25.45 12.34S259 228 259.11 230.16a.5.5 0 0 1-.43.51l-20.92 3.05a.48.48 0 0 1-.56-.42l-6.33-46.07c-2.75-.49-20.7-3.61-30.68-4.38-11-.84-29.24 4.64-29.92 6.35-.5 1.74 5 26.79 8.78 43.2a.54.54 0 0 1-.07.39.51.51 0 0 1-.34.21l-18.1 3Zm12.89-80c-1.59.69-25 11-29.16 24.66-3.9 12.73 14.6 50.42 16.55 54.33L178 232.1c-1.85-8-9.45-41.18-8.62-43.27 1-2.56 20.36-7.78 30.92-7 10.83.83 30.94 4.41 31.14 4.45a.5.5 0 0 1 .41.42l6.31 45.93 20-2.91c-.29-5.19-3.08-53.23-10-63.39-7.22-10.6-24.46-11.9-24.63-11.91Z" fill="#231f20"/><path d="M214.66 87.1s-47.3-1.12-55.92 7.71-12.4 38.47-12.4 38.47l19.49 5.64 4-14.68 3.36 31.19 50.3-1.43-2.73-31.18 18.37-5.82S230 91.25 214.66 87.1Z" fill="#b84260"/><path d="M208.54 69.87s5.35-10.69 3.32-13.48-3.41-1.78-3.42-1.77c2.16-1.56-.41-4.77-1.8-5.86a12.61 12.61 0 0 0-3.6-1.83 28.18 28.18 0 0 0-9.91-2 15.22 15.22 0 0 0-9.45 3.13c-4.15 3.36-5.48 7.61-5 12.8.32 3.71 1.45 7.41 1.67 11.05 4.25.43 8.54 1 12.85 1.06 3.38.1 13.35.86 15.34-3.1Z" fill="#fff"/><path d="M197.72 73.62c-1.28 0-2.48 0-3.48-.08h-1.09c-3.51-.09-7-.45-10.44-.81l-2.45-.25a.53.53 0 0 1-.47-.49 45 45 0 0 0-.84-5.7 52.48 52.48 0 0 1-.82-5.34c-.49-5.74 1.17-10 5.22-13.24a15.68 15.68 0 0 1 9.78-3.24 28.84 28.84 0 0 1 10.08 2 13.7 13.7 0 0 1 3.79 1.88c1.11.87 2.86 2.93 2.83 4.74a2.36 2.36 0 0 1-.19.89 4.78 4.78 0 0 1 2.68 2.11c2.09 2.87-2.37 12.17-3.28 14-1.55 3.03-6.9 3.53-11.32 3.53Zm-16.93-2.16 2 .21c3.39.36 6.9.72 10.36.8h1.1c3.64.13 12.15.43 13.81-2.87 2.08-4.2 4.7-11.1 3.36-12.94s-2.35-1.88-2.71-1.66a.52.52 0 0 1-.71-.14.5.5 0 0 1 .12-.7 1.34 1.34 0 0 0 .61-1.13c0-1.34-1.43-3.12-2.43-3.91a12.18 12.18 0 0 0-3.46-1.75 27 27 0 0 0-9.72-1.94 14.68 14.68 0 0 0-9.14 3c-3.76 3.05-5.3 7-4.84 12.36a51.44 51.44 0 0 0 .81 5.22 52.14 52.14 0 0 1 .84 5.45Zm27.75-1.59Z" fill="#231f20"/><path d="M203.74 71.36c1.08-4.59 8.88-5.17 8.1.28a8.11 8.11 0 0 1-2.43 5 4.79 4.79 0 0 1-5.27.83" fill="#fff"/><path d="M206.05 78.44a4.52 4.52 0 0 1-2.15-.52.52.52 0 0 1-.21-.7.5.5 0 0 1 .7-.21 4.3 4.3 0 0 0 4.67-.77 7.6 7.6 0 0 0 2.27-4.68c.25-1.77-.49-3-2-3.25a4.47 4.47 0 0 0-5 3.17.51.51 0 0 1-1-.24 5.46 5.46 0 0 1 6.24-3.94c1.65.31 3.27 1.63 2.87 4.41a8.66 8.66 0 0 1-2.6 5.31 5.68 5.68 0 0 1-3.79 1.42Z" fill="#231f20"/><path d="M184.51 70c-.4-4.7-8-6.42-8-.91a8.14 8.14 0 0 0 1.68 5.3 4.8 4.8 0 0 0 5.08 1.59" fill="#fff"/><path d="M181.91 76.67a5.58 5.58 0 0 1-4.16-2 8.7 8.7 0 0 1-1.81-5.67c0-2.81 1.81-3.88 3.49-4a5.49 5.49 0 0 1 5.57 4.9.52.52 0 1 1-1 .09 4.48 4.48 0 0 0-4.53-3.87c-1.58.07-2.49 1.13-2.5 2.92a7.71 7.71 0 0 0 1.56 5 4.29 4.29 0 0 0 4.52 1.44.52.52 0 0 1 .35 1 4.45 4.45 0 0 1-1.49.19Z" fill="#231f20"/><path d="M183.49 93.22a8.87 8.87 0 0 0 7.84 5.15 9.86 9.86 0 0 0 8.89-3.92V76.48l-13.9-1-.88 5.74-.28 1.86Z" fill="#fff"/><path d="M192.21 98.92h-.92c-6.35-.46-8.21-5.27-8.29-5.48a.46.46 0 0 1 0-.26l2.72-17.76a.5.5 0 0 1 .55-.43l13.9 1a.51.51 0 0 1 .48.51l.11 18a.54.54 0 0 1-.08.28 10.22 10.22 0 0 1-8.47 4.14ZM184 93.16a8.35 8.35 0 0 0 7.35 4.69 9.29 9.29 0 0 0 8.34-3.56L199.6 77l-12.95-1Z" fill="#231f20"/><path d="m192.11 84.78 1.24.09A10.68 10.68 0 0 0 204.79 75L206 58.14l-12.48 2.14-10.06-3.8-1.24 16.87a10.68 10.68 0 0 0 9.89 11.43Z" fill="#fff"/><path d="M194.15 85.42h-.84l-1.24-.09a11.21 11.21 0 0 1-10.35-12L183 56.45a.52.52 0 0 1 .7-.45l9.93 3.75 12.35-2.12a.52.52 0 0 1 .6.54L205.3 75a11.19 11.19 0 0 1-11.15 10.38Zm-2-1.15 1.24.09A10.15 10.15 0 0 0 204.27 75l1.19-16.21-11.84 2a.64.64 0 0 1-.27 0l-9.41-3.55-1.19 16.18a10.18 10.18 0 0 0 9.4 10.88Z" fill="#231f20"/><path d="M194.25 76.4a13.79 13.79 0 0 1-2.66-.26.5.5 0 0 1-.4-.6.51.51 0 0 1 .6-.41 13.78 13.78 0 0 0 3 .22c.32-.44-.25-3.85-1.32-7.4a.51.51 0 0 1 1-.3c.49 1.62 2 7 1.1 8.33a.9.9 0 0 1-.71.4Z" fill="#231f20"/><ellipse cx="198.58" cy="66.01" rx="1.81" ry=".74" transform="rotate(-85.8 198.587 66.01)" fill="#231f20"/><ellipse cx="189.13" cy="64.87" rx="1.81" ry=".74" transform="rotate(-85.8 189.133 64.865)" fill="#231f20"/><path d="M196.87 81.89a.5.5 0 0 1-.44-.26c-2.46-4.24-9.43-3-9.5-3a.51.51 0 0 1-.19-1c.32-.06 7.76-1.35 10.58 3.51a.52.52 0 0 1-.19.71.48.48 0 0 1-.26.04Z" fill="#231f20"/><path d="M238.83 119s2.52-11.35-6.94-13.88-38-1.15-38-1.15-14.77-6.53-16.89-4.38-4.41 7-4 9.51 4.2 4.63 4.2 3.37-.21-3.37-.21-3.37 5.68 4.42 10.93 2.74c0 0 37.21 14.51 44.15 13.24s6.76-6.08 6.76-6.08Z" fill="#fff"/><path d="M231.12 125.67c-8.77 0-40.26-12.15-43.19-13.28-4.17 1.23-8.45-1-10.3-2.24.06.71.12 1.63.12 2.32a.85.85 0 0 1-.83.89c-1.34.1-4-2-4.4-4.18-.45-2.7 1.89-7.65 4.13-10s14.53 3 17.29 4.21c2.31-.11 28.87-1.28 38.08 1.17 9.47 2.53 7.5 13.53 7.32 14.43 0 .66-.34 5.31-7.15 6.55a5.62 5.62 0 0 1-1.07.13ZM188 111.32a.58.58 0 0 1 .19 0c.37.14 37.16 14.44 43.87 13.22 6.38-1.16 6.31-5.39 6.3-5.57s0-.09 0-.13a16.57 16.57 0 0 0 .07-5.82c-.7-4-2.93-6.46-6.63-7.45-9.28-2.47-37.61-1.15-37.89-1.14a.51.51 0 0 1-.24 0c-6-2.65-15-5.79-16.24-4.48-2 2.07-4.24 6.76-3.85 9.06a4.74 4.74 0 0 0 2.07 2.79 3 3 0 0 0 1.1.52c0-1.24-.2-3.15-.2-3.17a.51.51 0 0 1 .26-.5.53.53 0 0 1 .57 0s5.53 4.23 10.46 2.66a.4.4 0 0 1 .16.01Z" fill="#231f20"/><path d="M191 105.85v3.09l7.52 1.66s5.24-5.38 6.57-6.24l-.54-2.84Z" fill="#231f20"/><path d="M198.56 111.1h-.11l-7.52-1.66a.49.49 0 0 1-.39-.49v-3.09a.51.51 0 0 1 .34-.48l13.56-4.32a.49.49 0 0 1 .41 0 .54.54 0 0 1 .23.34l.54 2.84a.51.51 0 0 1-.22.51 85.6 85.6 0 0 0-6.48 6.17.51.51 0 0 1-.36.18Zm-7-2.56 6.87 1.52c.91-.93 4.69-4.77 6.18-5.92l-.37-2-12.68 4Z" fill="#231f20"/><path d="M191 105.85s2.85-4.61 6.1-5.89l7.45 1.56s-4.83 3.18-6.43 5.94Z" fill="#fff"/><path d="M198.16 108h-.11l-7.13-1.61a.5.5 0 0 1-.36-.3.52.52 0 0 1 0-.47c.12-.2 3-4.77 6.36-6.1a.57.57 0 0 1 .29 0l7.49 1.48a.51.51 0 0 1 .4.41.5.5 0 0 1-.23.52s-4.75 3.14-6.26 5.76a.5.5 0 0 1-.45.31Zm-6.28-2.46 6 1.36a23.39 23.39 0 0 1 5.39-5.09l-6.12-1.28c-2.28.96-4.4 3.74-5.27 4.98Zm1.12 3.03a7.92 7.92 0 0 0-1.58 6l4.69 1.18a11 11 0 0 1 1.35-6.2Z" fill="#231f20"/><path d="M196.08 116.24H196l-4.73-1.24a.5.5 0 0 1-.38-.44 8.31 8.31 0 0 1 1.72-6.37.47.47 0 0 1 .46-.15l4.47 1a.48.48 0 0 1 .35.3.5.5 0 0 1 0 .46 10.4 10.4 0 0 0-1.27 5.88.54.54 0 0 1-.17.43.52.52 0 0 1-.37.13Zm-4.22-2.08 3.69.94a11.43 11.43 0 0 1 1.11-5.22l-3.5-.76a7.85 7.85 0 0 0-1.3 5.04Z" fill="#231f20"/><path d="M197.53 104.21a.5.5 0 0 1-.33-.12.52.52 0 0 1-.15-.54l.64-2a.5.5 0 0 1 .95.31l-.27.84 2-1a.49.49 0 0 1 .66.23.5.5 0 0 1-.23.67l-3 1.49a.54.54 0 0 1-.27.12Z" fill="#d1d3d4"/><path d="M170.91 134a.52.52 0 0 1-.51-.46c-.33-3-3.23-28.81-3.23-29.78a.48.48 0 0 1 .51-.52.53.53 0 0 1 .52.52c0 .81 2.33 21.69 3.22 29.67a.52.52 0 0 1-.45.57Z" fill="#231f20"/><path d="M265.26 41.21c-17.94 0-32.48 10.89-32.48 24.34 0 5.94 2.84 11.38 7.56 15.6L233 86.93l11.62-2.57a39.48 39.48 0 0 0 20.61 5.53c17.94 0 32.48-10.9 32.48-24.34s-14.51-24.34-32.45-24.34Z" fill="#fff"/><path d="M265.26 90.39a40.26 40.26 0 0 1-20.7-5.5l-11.42 2.53a.5.5 0 0 1-.42-.88l6.85-5.41c-4.71-4.4-7.29-9.92-7.29-15.58 0-13.7 14.79-24.84 33-24.84s33 11.14 33 24.84-14.84 24.84-33.02 24.84Zm-20.61-6.53a.48.48 0 0 1 .26.07 39.23 39.23 0 0 0 20.35 5.46c17.63 0 32-10.7 32-23.84s-14.35-23.84-32-23.84-32 10.69-32 23.84c0 5.55 2.63 11 7.39 15.23a.52.52 0 0 1 .17.39.47.47 0 0 1-.19.38L235.05 86l9.49-2.1Z" fill="#d1d3d4"/><path d="M263.22 71.38a.48.48 0 0 1-.24-.06.51.51 0 0 1-.26-.44V51.26a.5.5 0 0 1 .5-.5.51.51 0 0 1 .5.5V70l15.88-10.33a.5.5 0 0 1 .55.84L263.49 71.3a.53.53 0 0 1-.27.08Z" fill="#d1d3d4"/></g></svg>