<svg fill="none" height="27" viewBox="0 0 567 27" width="567" xmlns="http://www.w3.org/2000/svg"><path clip-rule="evenodd" d="m386.62.124053c-4.714-.016115-8.515-.029105-10.717-.0327455-.889 0-1.735.0268745-2.499.0511375-.629.019967-1.202.038165-1.698.038165-18.134-.1414179-37.316-.120093-56.508-.0987565-10.238.0113815-20.479.0227665-30.565.009454-5.401-.0090014-10.808.0582225-16.217.1254705-2.226.027669-4.452.055342-6.678.077711-4.968-.128503-9.895-.023419-14.806.0813-2.327.04962-4.649.099158-6.971.123724-19.508.207136-39.058.198837-58.604.19054-6.936-.002944-13.871-.005887-20.803.000795-12.688.015006-25.377.024497-38.066.033989-30.4574.022781-60.9171.045565-91.3705.144615-2.1932.006366-4.3823-.032543-6.5651-.071339-6.5648-.116679-13.0722-.232337-19.4574.887707-.05741.00638-.14353.01914-.22964.03191-.08612.01276-.17224.02552-.22964.0319-1.8902.25775-2.06166.66018-2.23331 1.06307-.0832.19527-.16644.39065-.44545.56971-3.89062 2.47469-.81638 3.2528 10.77894 2.89563 2.1264-.06444 4.3613.00675 6.5525.07654.4114.01311.8213.02616 1.2287.03826 4.8603.15578 12.4262.19319 18.3267.22237 1.347.00666 2.6073.01289 3.7287.02 3.6515.01919 7.4856-.07062 11.239-.15854 3.7336-.08746 7.3873-.17304 10.7015-.14759 11.0524.08985 22.1029.23246 33.153.37506 17.186.22178 34.371.44355 51.561.46685 18.694.02186 37.389-.12285 56.086-.26758 14.027-.10857 28.055-.21716 42.085-.25543 18.393-.05386 36.786-.04021 55.179-.02655 16.456.01221 32.913.02443 49.37-.01172 12.554-.02888 25.106-.01372 37.659.00145 26.25.03172 52.503.06344 78.779-.30762 19.591-.28229 39.328-.05786 59.047.16636 7.012.07974 14.023.15946 21.023.21635 11.022.08929 18.216-1.21184 18.446-3.46967.201-2.01831-9.089-2.16921-15.478-2.272989-.475-.007725-.935-.015189-1.373-.023142-40.45-.7271-81.014-.752609-121.566-.714341-12.525.018232-30.059-.041705-41.864-.082055zm-104.742 18.872347c-11.098.0893-28.421.0638-33.307.0511-.56 0-1.093.0307-1.574.0585-.396.0227-.756.0435-1.066.0435-10.741-.0933-22.06-.0681-33.42-.0429-7.285.0161-14.586.0324-21.763.0174-3.23-.0085-6.466.051-9.703.1105-1.602.0294-3.204.0588-4.806.0801-3.181-.1386-6.333-.0334-9.471.0713-1.449.0484-2.895.0966-4.339.1208-10.923.1747-21.868.1866-32.818.1985-5.839.0064-11.679.0128-17.518.0438-27.3615.1276-54.7235.3189-82.0727.9057-1.3887.0318-2.7759.0184-4.1589.0051-4.1684-.0401-8.2991-.0798-12.322 1.1175-.0637.0255-.2041.0637-.2806.0765-1.1812.2739-1.2827.6799-1.3834 1.0831-.0494.1977-.0987.3947-.2749.5752-2.41093 2.513-.4465 3.2656 6.8883 2.7681 1.4178-.1021 2.9163-.0529 4.3789-.0049.1823.006.364.012.545.0176 2.847.0959 7.1491.0621 10.7303.034 1.1843-.0093 2.2898-.018 3.2377-.0212 2.3298-.0064 4.7732-.1298 7.1632-.2504 2.347-.1185 4.6425-.2343 6.7281-.2343 8.572.0061 17.141.1117 25.7085.2173 9.3201.1148 18.6384.2297 27.9565.2164 11.01-.0204 22.02-.163 33.032-.3057 9.72-.126 19.442-.252 29.167-.2939 11.04-.0063 22.086-.0159 33.132-.0255 11.047-.0096 22.095-.0191 33.136-.0255 6.149-.0351 12.298-.0486 18.447-.0622 18.447-.0407 36.899-.0813 55.373-.7032 10.896-.38 21.873-.3962 32.854-.4124 5.975-.0088 11.951-.0176 17.915-.085 6.991-.0638 11.519-1.4797 11.609-3.7376.083-2.0044-5.801-2.0238-9.847-2.0372-.305-.001-.6-.002-.881-.0038-20.167-.1004-40.364.0915-60.575.2835-5.473.052-10.947.104-16.421.1502z" fill="#d6676f" fill-rule="evenodd"/></svg>